<svg xmlns="http://www.w3.org/2000/svg" xmlns:xlink="http://www.w3.org/1999/xlink" viewBox="0 0 324.28 324.28"><defs><style>.cls-1{fill:url(#New_Gradient_Swatch_copy);}</style><linearGradient id="New_Gradient_Swatch_copy" y1="162.14" x2="324.28" y2="162.14" gradientUnits="userSpaceOnUse"><stop offset="0" stop-color="#090000"/><stop offset="1" stop-color="#009bff"/></linearGradient></defs><g id="Layer_2" data-name="Layer 2"><g id="Layer_1-2" data-name="Layer 1"><path class="cls-1" d="M295.44,145.59c-.59-8.8,12.67-18.22,24.08-22.49a160.61,160.61,0,0,0-16.95-42c-11.24,4.85-28.05,7.88-33.27.1-4.91-7.32,1.86-22.1,9.59-31.51A163,163,0,0,0,243.2,21.71c-7.31,9.81-20.34,20.83-28.75,16.7C206.53,34.53,205,18.32,207,6.29A161.7,161.7,0,0,0,162.12,0c-1.42,12.15-7.21,28.21-16.54,28.84-8.8.59-18.21-12.68-22.48-24.09A160.57,160.57,0,0,0,81,21.71C85.9,33,88.93,49.76,81.15,55c-7.32,4.91-22.09-1.87-31.5-9.6A162.61,162.61,0,0,0,21.71,81.07c9.82,7.32,20.83,20.35,16.7,28.76-3.88,7.92-20.09,9.43-32.11,7.43A161.28,161.28,0,0,0,0,162.16c12.15,1.41,28.2,7.19,28.83,16.53.6,8.8-12.67,18.22-24.08,22.49a160.64,160.64,0,0,0,17,42c11.23-4.86,28-7.88,33.26-.1,4.91,7.32-1.86,22.09-9.6,31.49a162.54,162.54,0,0,0,35.7,27.94c7.32-9.81,20.35-20.82,28.75-16.7,7.92,3.89,9.44,20.09,7.43,32.11a161.34,161.34,0,0,0,44.9,6.31c1.42-12.16,7.2-28.21,16.54-28.84,8.8-.59,18.21,12.67,22.48,24.09a161,161,0,0,0,42.06-17c-4.86-11.24-7.89-28.05-.11-33.27,7.32-4.91,22.09,1.86,31.49,9.6a162.35,162.35,0,0,0,27.95-35.69c-9.81-7.31-20.83-20.35-16.71-28.76C289.74,206.53,306,205,318,207a161.29,161.29,0,0,0,6.31-44.9C312.11,160.7,296.07,154.92,295.44,145.59ZM169.38,269.89a108,108,0,1,1,100.5-115A108,108,0,0,1,169.38,269.89Z"/></g></g></svg>