<svg xmlns="http://www.w3.org/2000/svg" xmlns:xlink="http://www.w3.org/1999/xlink" viewBox="0 0 692.01 667.4"><defs><style>.cls-1{fill:url(#linear-gradient);}.cls-2{fill:url(#New_Gradient_Swatch_copy);}.cls-3{fill:url(#New_Gradient_Swatch_copy-2);}.cls-4{fill:url(#Degradado_sin_nombre_143);}.cls-5{fill:url(#Degradado_sin_nombre_143-2);}</style><linearGradient id="linear-gradient" x1="295.49" y1="383.67" x2="689.08" y2="240.42" gradientUnits="userSpaceOnUse"><stop offset="0" stop-color="#090000"/><stop offset="0.08" stop-color="#090203"/><stop offset="0.15" stop-color="#09090e"/><stop offset="0.21" stop-color="#081320"/><stop offset="0.27" stop-color="#072339"/><stop offset="0.33" stop-color="#063659"/><stop offset="0.39" stop-color="#044e81"/><stop offset="0.45" stop-color="#036aaf"/><stop offset="0.47" stop-color="#0279c7"/><stop offset="0.53" stop-color="#036cb1"/><stop offset="0.64" stop-color="#054a79"/><stop offset="0.69" stop-color="#063b60"/><stop offset="0.72" stop-color="#05446f"/><stop offset="0.85" stop-color="#0372bc"/><stop offset="0.95" stop-color="#0190ec"/><stop offset="1" stop-color="#009bff"/></linearGradient><linearGradient id="New_Gradient_Swatch_copy" x1="200.59" y1="427.62" x2="338.54" y2="427.62" gradientUnits="userSpaceOnUse"><stop offset="0" stop-color="#090000"/><stop offset="1" stop-color="#009bff"/></linearGradient><linearGradient id="New_Gradient_Swatch_copy-2" x1="372.33" y1="403.49" x2="84.45" y2="569.7" xlink:href="#New_Gradient_Swatch_copy"/><linearGradient id="Degradado_sin_nombre_143" x1="78.26" y1="531.84" x2="299.82" y2="531.84" gradientUnits="userSpaceOnUse"><stop offset="0" stop-color="#00fab2"/><stop offset="1" stop-color="#009bff"/></linearGradient><linearGradient id="Degradado_sin_nombre_143-2" x1="0" y1="278.86" x2="444.38" y2="278.86" xlink:href="#Degradado_sin_nombre_143"/></defs><g id="Layer_2" data-name="Layer 2"><g id="Layer_1-2" data-name="Layer 1"><path class="cls-1" d="M692,248.46,447.25,225.67,349.71,0,255.28,219.07C328.24,260,377,333.78,377,418.08a217.13,217.13,0,0,1-29.32,108.83l2.32-1.38L561.5,650.79l-54-239.85Z"/><path class="cls-2" d="M308.2,370.44C280,351.31,241.1,356,218.33,381.36a68.78,68.78,0,0,0-15,65.51,6.62,6.62,0,0,0,7.48,4.66l.15,0a7.11,7.11,0,0,0,5.78-8.89,54.91,54.91,0,1,1,52.72,39.85,6.15,6.15,0,0,0-6.11,7c0,.05,0,.1,0,.15a8.09,8.09,0,0,0,8.45,6.88A69,69,0,0,0,308.2,370.44Z"/><path class="cls-3" d="M217.27,611.81l13-17.12-9-34.27,27.51-36.1a99.44,99.44,0,1,0-67-53.81L154,507l-35.43.42-13,17.12a22.61,22.61,0,1,0,10,8.62L125,520.79l36.82-2.23s40.3-52.82,40.28-52.86l-1.66-3.29a79.08,79.08,0,0,1,118.93-97.76c37.87,28.86,36.69,82.84,15,110.91-1,1.27-18.41,23.18-45.25,27h0s-12.36,3-23.56,2.46a55.67,55.67,0,0,1-16.14-3.23L208.13,556,215.74,592l-9.44,12.39a22.61,22.61,0,1,0,11,7.38Z"/><path class="cls-4" d="M137.19,638.78a29.47,29.47,0,1,1-28.62-30.31,28.74,28.74,0,0,1,8.66,1.56L245.88,442.17a29.2,29.2,0,0,1-5-17.27,29.47,29.47,0,1,1,28.6,30.3,29,29,0,0,1-8.63-1.56L132.2,621.52A29.16,29.16,0,0,1,137.19,638.78Z"/><path class="cls-5" d="M386.83,538.58q.63-7.7.62-15.53A192.55,192.55,0,0,0,249.2,338.32a187,187,0,0,0-21.62-5,307.16,307.16,0,0,1-117.89-61.71A307.32,307.32,0,0,1,0,36q0-8.46.46-16.81c42.06,102.76,138.06,177.73,252.8,189.7q11.52,1.2,23.28,1.55A192.5,192.5,0,0,1,386.83,538.58Z"/></g></g></svg>